<svg data-v-423bf9ae="" xmlns="http://www.w3.org/2000/svg" viewBox="0 0 516.6420388782398 198" class="iconAboveSlogan"><!----><!----><!----><g data-v-423bf9ae="" id="b1433eec-9ef5-4d80-a53e-1dfa5cec034e" fill="#241030" transform="matrix(5.535055160522461,0,0,5.535055160522461,0.5534972548484802,92.4833984375)"><path d="M7.45 11.70L6.62 9.21L2.87 9.21L2.02 11.70L3.18 12.00L3.18 12.60L-0.10 12.60L-0.10 12.00L1.05 11.70L4.41 2.38L5.71 2.38L9.03 11.70L10.15 12.00L10.15 12.60L6.30 12.60L6.30 12.00L7.45 11.70ZM4.79 3.63L3.15 8.40L6.36 8.40L4.84 3.63L4.79 3.63ZM14.81 5.85L14.81 5.85L14.81 5.85Q14.69 5.77 14.53 5.77L14.53 5.77L14.53 5.77Q14.27 5.77 13.97 6.10L13.97 6.10L13.97 6.10Q13.68 6.43 13.45 6.93L13.45 6.93L13.45 6.93Q13.26 7.41 13.15 7.97L13.15 7.97L13.15 7.97Q13.03 8.54 13.03 9.14L13.03 9.14L13.03 11.76L14.55 12.03L14.55 12.60L10.60 12.60L10.60 12.03L11.68 11.76L11.68 5.88L10.60 5.61L10.60 5.04L12.61 5.04L12.92 6.89L12.98 6.89L12.98 6.89Q13.30 5.94 13.84 5.42L13.84 5.42L13.84 5.42Q14.38 4.90 15.05 4.90L15.05 4.90L15.05 4.90Q15.60 4.90 15.96 5.24L15.96 5.24L15.96 5.24Q16.32 5.59 16.32 6.16L16.32 6.16L16.32 6.16Q16.32 6.58 16.11 6.82L16.11 6.82L16.11 6.82Q15.89 7.07 15.53 7.07L15.53 7.07L15.53 7.07Q15.16 7.07 14.95 6.84L14.95 6.84L14.95 6.84Q14.74 6.61 14.74 6.23L14.74 6.23L14.74 6.23Q14.74 6.15 14.76 6.08L14.76 6.08L14.76 6.08Q14.77 6.01 14.81 5.85ZM16.63 5.74L16.63 5.24L17.99 5.04L18.17 3.28L19.35 3.11L19.35 5.04L21.14 5.04L21.14 5.74L19.35 5.74L19.35 10.74L19.35 10.74Q19.35 11.21 19.36 11.39L19.36 11.39L19.36 11.39Q19.38 11.56 19.42 11.68L19.42 11.68L19.42 11.68Q19.46 11.79 19.57 11.82L19.57 11.82L19.57 11.82Q19.68 11.84 19.94 11.84L19.94 11.84L20.92 11.84L20.92 12.25L20.92 12.25Q20.24 12.50 19.73 12.62L19.73 12.62L19.73 12.62Q19.22 12.74 18.91 12.74L18.91 12.74L18.91 12.74Q18.28 12.74 18.10 12.22L18.10 12.22L18.10 12.22Q18.03 12.05 18.01 11.79L18.01 11.79L18.01 11.79Q17.99 11.54 17.99 11.00L17.99 11.00L17.99 5.74L16.63 5.74ZM22.86 5.88L21.78 5.61L21.78 5.04L24.22 5.04L24.22 11.76L25.30 12.03L25.30 12.60L21.78 12.60L21.78 12.03L22.86 11.76L22.86 5.88ZM22.67 2.79L22.67 2.79L22.67 2.79Q22.67 2.38 22.90 2.14L22.90 2.14L22.90 2.14Q23.13 1.90 23.53 1.90L23.53 1.90L23.53 1.90Q23.94 1.90 24.18 2.14L24.18 2.14L24.18 2.14Q24.42 2.38 24.42 2.79L24.42 2.79L24.42 2.79Q24.42 3.19 24.18 3.42L24.18 3.42L24.18 3.42Q23.94 3.65 23.53 3.65L23.53 3.65L23.53 3.65Q23.13 3.65 22.90 3.42L22.90 3.42L22.90 3.42Q22.67 3.19 22.67 2.79ZM29.06 12.10L29.06 12.10L29.06 12.10Q29.86 12.10 30.35 11.78L30.35 11.78L30.35 11.78Q30.84 11.47 30.84 10.88L30.84 10.88L30.84 10.88Q30.84 10.53 30.66 10.29L30.66 10.29L30.66 10.29Q30.48 10.05 30.19 9.88L30.19 9.88L30.19 9.88Q29.90 9.72 29.55 9.60L29.55 9.60L29.55 9.60Q29.19 9.48 28.85 9.38L28.85 9.38L28.85 9.38Q28.42 9.25 28.01 9.09L28.01 9.09L28.01 9.09Q27.59 8.92 27.27 8.66L27.27 8.66L27.27 8.66Q26.94 8.40 26.74 8.03L26.74 8.03L26.74 8.03Q26.54 7.66 26.54 7.13L26.54 7.13L26.54 7.13Q26.54 6.12 27.28 5.51L27.28 5.51L27.28 5.51Q28.01 4.90 29.33 4.90L29.33 4.90L29.33 4.90Q30.45 4.90 31.10 5.37L31.10 5.37L31.10 5.37Q31.75 5.84 31.75 6.65L31.75 6.65L31.75 6.65Q31.75 7.10 31.56 7.35L31.56 7.35L31.56 7.35Q31.36 7.60 31.00 7.60L31.00 7.60L31.00 7.60Q30.67 7.60 30.46 7.41L30.46 7.41L30.46 7.41Q30.25 7.21 30.25 6.90L30.25 6.90L30.25 6.90Q30.25 6.64 30.39 6.42L30.39 6.42L30.39 6.42Q30.53 6.20 30.76 6.10L30.76 6.10L30.76 6.10Q30.55 5.81 30.22 5.68L30.22 5.68L30.22 5.68Q29.89 5.54 29.37 5.54L29.37 5.54L29.37 5.54Q27.69 5.54 27.69 6.73L27.69 6.73L27.69 6.73Q27.69 7.06 27.80 7.27L27.80 7.27L27.80 7.27Q27.92 7.48 28.14 7.63L28.14 7.63L28.14 7.63Q28.36 7.78 28.69 7.90L28.69 7.90L28.69 7.90Q29.02 8.02 29.46 8.16L29.46 8.16L29.46 8.16Q29.93 8.32 30.39 8.48L30.39 8.48L30.39 8.48Q30.86 8.65 31.23 8.90L31.23 8.90L31.23 8.90Q31.60 9.16 31.83 9.53L31.83 9.53L31.83 9.53Q32.06 9.91 32.06 10.47L32.06 10.47L32.06 10.47Q32.06 11.02 31.84 11.44L31.84 11.44L31.84 11.44Q31.61 11.86 31.21 12.14L31.21 12.14L31.21 12.14Q30.80 12.43 30.24 12.59L30.24 12.59L30.24 12.59Q29.68 12.74 29.01 12.74L29.01 12.74L29.01 12.74Q27.76 12.74 27.01 12.24L27.01 12.24L27.01 12.24Q26.26 11.75 26.26 10.88L26.26 10.88L26.26 10.88Q26.26 10.43 26.47 10.17L26.47 10.17L26.47 10.17Q26.67 9.91 27.05 9.91L27.05 9.91L27.05 9.91Q27.38 9.91 27.62 10.11L27.62 10.11L27.62 10.11Q27.85 10.30 27.85 10.63L27.85 10.63L27.85 10.63Q27.85 10.89 27.70 11.13L27.70 11.13L27.70 11.13Q27.55 11.37 27.34 11.48L27.34 11.48L27.34 11.48Q27.52 11.76 27.99 11.93L27.99 11.93L27.99 11.93Q28.46 12.10 29.06 12.10ZM32.82 5.74L32.82 5.24L34.17 5.04L34.36 3.28L35.53 3.11L35.53 5.04L37.32 5.04L37.32 5.74L35.53 5.74L35.53 10.74L35.53 10.74Q35.53 11.21 35.55 11.39L35.55 11.39L35.55 11.39Q35.56 11.56 35.60 11.68L35.60 11.68L35.60 11.68Q35.64 11.79 35.76 11.82L35.76 11.82L35.76 11.82Q35.87 11.84 36.12 11.84L36.12 11.84L37.10 11.84L37.10 12.25L37.10 12.25Q36.43 12.50 35.92 12.62L35.92 12.62L35.92 12.62Q35.41 12.74 35.10 12.74L35.10 12.74L35.10 12.74Q34.47 12.74 34.29 12.22L34.29 12.22L34.29 12.22Q34.22 12.05 34.20 11.79L34.20 11.79L34.20 11.79Q34.17 11.54 34.17 11.00L34.17 11.00L34.17 5.74L32.82 5.74ZM39.05 5.88L37.97 5.61L37.97 5.04L40.40 5.04L40.40 11.76L41.48 12.03L41.48 12.60L37.97 12.60L37.97 12.03L39.05 11.76L39.05 5.88ZM38.85 2.79L38.85 2.79L38.85 2.79Q38.85 2.38 39.08 2.14L39.08 2.14L39.08 2.14Q39.31 1.90 39.72 1.90L39.72 1.90L39.72 1.90Q40.12 1.90 40.36 2.14L40.36 2.14L40.36 2.14Q40.60 2.38 40.60 2.79L40.60 2.79L40.60 2.79Q40.60 3.19 40.36 3.42L40.36 3.42L40.36 3.42Q40.12 3.65 39.72 3.65L39.72 3.65L39.72 3.65Q39.31 3.65 39.08 3.42L39.08 3.42L39.08 3.42Q38.85 3.19 38.85 2.79ZM46.06 4.90L46.06 4.90L46.06 4.90Q47.28 4.90 48.00 5.49L48.00 5.49L48.00 5.49Q48.72 6.09 48.72 7.08L48.72 7.08L48.72 7.08Q48.72 8.16 47.85 8.16L47.85 8.16L47.85 8.16Q47.45 8.16 47.22 7.94L47.22 7.94L47.22 7.94Q47.00 7.71 47.00 7.34L47.00 7.34L47.00 7.34Q47.00 6.99 47.19 6.73L47.19 6.73L47.19 6.73Q47.38 6.48 47.70 6.38L47.70 6.38L47.70 6.38Q47.29 5.61 46.14 5.61L46.14 5.61L46.14 5.61Q45.00 5.61 44.47 6.36L44.47 6.36L44.47 6.36Q43.95 7.10 43.95 8.69L43.95 8.69L43.95 8.69Q43.95 10.02 44.31 10.72L44.31 10.72L44.31 10.72Q44.87 11.80 46.14 11.80L46.14 11.80L46.14 11.80Q46.79 11.80 47.38 11.52L47.38 11.52L47.38 11.52Q47.96 11.24 48.38 10.72L48.38 10.72L48.80 11.06L48.80 11.06Q48.24 11.93 47.52 12.33L47.52 12.33L47.52 12.33Q46.79 12.74 45.81 12.74L45.81 12.74L45.81 12.74Q44.83 12.74 44.11 12.34L44.11 12.34L44.11 12.34Q43.39 11.94 42.98 11.17L42.98 11.17L42.98 11.17Q42.74 10.72 42.61 10.14L42.61 10.14L42.61 10.14Q42.48 9.56 42.48 8.90L42.48 8.90L42.48 8.90Q42.48 7.99 42.73 7.26L42.73 7.26L42.73 7.26Q42.98 6.52 43.45 6.00L43.45 6.00L43.45 6.00Q43.92 5.47 44.58 5.19L44.58 5.19L44.58 5.19Q45.25 4.90 46.06 4.90ZM55.40 3.42L58.17 11.44L58.23 11.44L60.83 3.42L59.67 3.12L59.67 2.52L62.94 2.52L62.94 3.12L61.80 3.42L58.66 12.60L57.29 12.60L53.89 3.42L52.77 3.12L52.77 2.52L56.55 2.52L56.55 3.12L55.40 3.42ZM64.41 5.88L63.34 5.61L63.34 5.04L65.77 5.04L65.77 11.76L66.85 12.03L66.85 12.60L63.34 12.60L63.34 12.03L64.41 11.76L64.41 5.88ZM64.22 2.79L64.22 2.79L64.22 2.79Q64.22 2.38 64.45 2.14L64.45 2.14L64.45 2.14Q64.68 1.90 65.09 1.90L65.09 1.90L65.09 1.90Q65.49 1.90 65.73 2.14L65.73 2.14L65.73 2.14Q65.97 2.38 65.97 2.79L65.97 2.79L65.97 2.79Q65.97 3.19 65.73 3.42L65.73 3.42L65.73 3.42Q65.49 3.65 65.09 3.65L65.09 3.65L65.09 3.65Q64.68 3.65 64.45 3.42L64.45 3.42L64.45 3.42Q64.22 3.19 64.22 2.79ZM74.16 8.90L69.27 8.90L69.27 8.90Q69.27 9.93 69.55 10.60L69.55 10.60L69.55 10.60Q69.83 11.26 70.34 11.53L70.34 11.53L70.34 11.53Q70.85 11.80 71.47 11.80L71.47 11.80L71.47 11.80Q72.14 11.80 72.68 11.53L72.68 11.53L72.68 11.53Q73.22 11.26 73.65 10.78L73.65 10.78L74.10 11.12L74.10 11.12Q73.85 11.45 73.56 11.75L73.56 11.75L73.56 11.75Q73.28 12.04 72.91 12.26L72.91 12.26L72.91 12.26Q72.55 12.49 72.10 12.61L72.10 12.61L72.10 12.61Q71.65 12.74 71.11 12.74L71.11 12.74L71.11 12.74Q70.14 12.74 69.40 12.33L69.40 12.33L69.40 12.33Q68.66 11.91 68.26 11.12L68.26 11.12L68.26 11.12Q68.05 10.68 67.96 10.16L67.96 10.16L67.96 10.16Q67.86 9.63 67.86 9.02L67.86 9.02L67.86 9.02Q67.86 7.04 68.75 5.97L68.75 5.97L68.75 5.97Q69.65 4.90 71.22 4.90L71.22 4.90L71.22 4.90Q72.66 4.90 73.43 5.79L73.43 5.79L73.43 5.79Q74.20 6.68 74.20 8.25L74.20 8.25L74.20 8.25Q74.20 8.39 74.19 8.50L74.19 8.50L74.19 8.50Q74.19 8.62 74.16 8.90L74.16 8.90ZM71.13 5.66L71.13 5.66L71.13 5.66Q69.45 5.66 69.29 8.22L69.29 8.22L72.79 8.22L72.79 7.76L72.79 7.76Q72.79 6.75 72.36 6.20L72.36 6.20L72.36 6.20Q71.93 5.66 71.13 5.66ZM77.04 5.88L78.48 10.92L78.65 11.75L78.72 11.75L78.89 10.92L80.53 4.90L81.54 4.90L83.23 10.92L83.40 11.75L83.45 11.75L83.62 10.92L85.02 5.88L84.11 5.61L84.11 5.04L86.77 5.04L86.77 5.61L86.02 5.88L83.93 12.74L82.49 12.74L80.82 7.28L79.20 12.74L77.76 12.74L75.61 5.88L74.87 5.61L74.87 5.04L78.01 5.04L78.01 5.61L77.04 5.88ZM90.24 12.10L90.24 12.10L90.24 12.10Q91.04 12.10 91.53 11.78L91.53 11.78L91.53 11.78Q92.02 11.47 92.02 10.88L92.02 10.88L92.02 10.88Q92.02 10.53 91.84 10.29L91.84 10.29L91.84 10.29Q91.66 10.05 91.37 9.88L91.37 9.88L91.37 9.88Q91.08 9.72 90.73 9.60L90.73 9.60L90.73 9.60Q90.37 9.48 90.03 9.38L90.03 9.38L90.03 9.38Q89.60 9.25 89.19 9.09L89.19 9.09L89.19 9.09Q88.77 8.92 88.45 8.66L88.45 8.66L88.45 8.66Q88.12 8.40 87.92 8.03L87.92 8.03L87.92 8.03Q87.72 7.66 87.72 7.13L87.72 7.13L87.72 7.13Q87.72 6.12 88.46 5.51L88.46 5.51L88.46 5.51Q89.19 4.90 90.51 4.90L90.51 4.90L90.51 4.90Q91.63 4.90 92.28 5.37L92.28 5.37L92.28 5.37Q92.93 5.84 92.93 6.65L92.93 6.65L92.93 6.65Q92.93 7.10 92.74 7.35L92.74 7.35L92.74 7.35Q92.54 7.60 92.18 7.60L92.18 7.60L92.18 7.60Q91.85 7.60 91.64 7.41L91.64 7.41L91.64 7.41Q91.43 7.21 91.43 6.90L91.43 6.90L91.43 6.90Q91.43 6.64 91.57 6.42L91.57 6.42L91.57 6.42Q91.71 6.20 91.94 6.10L91.94 6.10L91.94 6.10Q91.73 5.81 91.40 5.68L91.40 5.68L91.40 5.68Q91.07 5.54 90.55 5.54L90.55 5.54L90.55 5.54Q88.87 5.54 88.87 6.73L88.87 6.73L88.87 6.73Q88.87 7.06 88.98 7.27L88.98 7.27L88.98 7.27Q89.10 7.48 89.32 7.63L89.32 7.63L89.32 7.63Q89.54 7.78 89.87 7.90L89.87 7.90L89.87 7.90Q90.20 8.02 90.64 8.16L90.64 8.16L90.64 8.16Q91.11 8.32 91.57 8.48L91.57 8.48L91.57 8.48Q92.04 8.65 92.41 8.90L92.41 8.90L92.41 8.90Q92.78 9.16 93.01 9.53L93.01 9.53L93.01 9.53Q93.24 9.91 93.24 10.47L93.24 10.47L93.24 10.47Q93.24 11.02 93.02 11.44L93.02 11.44L93.02 11.44Q92.79 11.86 92.39 12.14L92.39 12.14L92.39 12.14Q91.98 12.43 91.42 12.59L91.42 12.59L91.42 12.59Q90.86 12.74 90.19 12.74L90.19 12.74L90.19 12.74Q88.94 12.74 88.19 12.24L88.19 12.24L88.19 12.24Q87.44 11.75 87.44 10.88L87.44 10.88L87.44 10.88Q87.44 10.43 87.65 10.17L87.65 10.17L87.65 10.17Q87.85 9.91 88.23 9.91L88.23 9.91L88.23 9.91Q88.56 9.91 88.80 10.11L88.80 10.11L88.80 10.11Q89.03 10.30 89.03 10.63L89.03 10.63L89.03 10.63Q89.03 10.89 88.88 11.13L88.88 11.13L88.88 11.13Q88.73 11.37 88.52 11.48L88.52 11.48L88.52 11.48Q88.70 11.76 89.17 11.93L89.17 11.93L89.17 11.93Q89.64 12.10 90.24 12.10Z"></path></g><defs data-v-423bf9ae=""><linearGradient data-v-423bf9ae="" gradientTransform="rotate(25)" id="e9e3401b-6504-4534-8c26-b6ff7687e5d6" x1="0%" y1="0%" x2="100%" y2="0%"><stop data-v-423bf9ae="" offset="0%" style="stop-color: rgb(73, 36, 126); stop-opacity: 1;"></stop><stop data-v-423bf9ae="" offset="100%" style="stop-color: rgb(170, 73, 199); stop-opacity: 1;"></stop></linearGradient></defs><g data-v-423bf9ae="" id="3e628a9a-654c-4962-a460-bdd7b7484849" transform="matrix(2.8125,0,0,2.8125,214,1.0290032625198364)" stroke="none" fill="url(#e9e3401b-6504-4534-8c26-b6ff7687e5d6)"><path d="M0 31.984h32v-32H0v32zm2-30h28v28H2v-28z"></path><path d="M6.439 16.831h8.959l-4.48-7.741zM16.602 13.331h8.959L21.082 5.59zM6.439 26.41h8.959l-4.48-7.741zM16.602 22.91h8.959l-4.479-7.741z"></path></g><!----><g data-v-423bf9ae="" id="60ba5a5e-be21-4264-9f68-c3b48ec13219" fill="#241030" transform="matrix(1.733077883720398,0,0,1.733077883720398,64.29158020019531,190.6109619140625)"><path d="M1.32 15.68L1.32 5.88L7.25 5.88L7.25 6.97L2.49 6.97L2.49 10.22L7.17 10.22L7.17 11.31L2.49 11.31L2.49 14.59L7.34 14.59L7.34 15.68L1.32 15.68ZM21.83 14.59L21.83 14.50L21.66 14.50L21.66 14.50Q21.32 15.20 20.73 15.54L20.73 15.54L20.73 15.54Q20.13 15.88 19.47 15.88L19.47 15.88L19.47 15.88Q18.79 15.88 18.20 15.64L18.20 15.64L18.20 15.64Q17.61 15.41 17.17 14.96L17.17 14.96L17.17 14.96Q16.73 14.50 16.48 13.85L16.48 13.85L16.48 13.85Q16.23 13.19 16.23 12.32L16.23 12.32L16.23 12.10L16.23 12.10Q16.23 11.24 16.48 10.58L16.48 10.58L16.48 10.58Q16.73 9.93 17.17 9.47L17.17 9.47L17.17 9.47Q17.61 9.02 18.20 8.78L18.20 8.78L18.20 8.78Q18.79 8.54 19.45 8.54L19.45 8.54L19.45 8.54Q20.16 8.54 20.74 8.86L20.74 8.86L20.74 8.86Q21.32 9.17 21.66 9.83L21.66 9.83L21.83 9.83L21.83 8.74L22.92 8.74L22.92 14.25L22.92 14.25Q22.92 14.67 23.30 14.67L23.30 14.67L23.65 14.67L23.65 15.68L22.90 15.68L22.90 15.68Q22.43 15.68 22.13 15.37L22.13 15.37L22.13 15.37Q21.83 15.06 21.83 14.59L21.83 14.59ZM19.59 14.84L19.59 14.84L19.59 14.84Q20.08 14.84 20.49 14.66L20.49 14.66L20.49 14.66Q20.90 14.48 21.20 14.14L21.20 14.14L21.20 14.14Q21.49 13.80 21.66 13.33L21.66 13.33L21.66 13.33Q21.83 12.87 21.83 12.29L21.83 12.29L21.83 12.12L21.83 12.12Q21.83 11.56 21.66 11.09L21.66 11.09L21.66 11.09Q21.49 10.63 21.19 10.29L21.19 10.29L21.19 10.29Q20.89 9.95 20.48 9.77L20.48 9.77L20.48 9.77Q20.06 9.58 19.59 9.58L19.59 9.58L19.59 9.58Q19.10 9.58 18.69 9.76L18.69 9.76L18.69 9.76Q18.28 9.94 17.98 10.27L17.98 10.27L17.98 10.27Q17.68 10.60 17.51 11.07L17.51 11.07L17.51 11.07Q17.35 11.54 17.35 12.10L17.35 12.10L17.35 12.32L17.35 12.32Q17.35 13.51 17.97 14.17L17.97 14.17L17.97 14.17Q18.59 14.84 19.59 14.84ZM32.12 9.74L32.12 8.74L34.30 8.74L34.30 5.88L35.39 5.88L35.39 8.74L38.08 8.74L38.08 9.74L35.39 9.74L35.39 14.25L35.39 14.25Q35.39 14.67 35.77 14.67L35.77 14.67L37.74 14.67L37.74 15.68L35.38 15.68L35.38 15.68Q34.90 15.68 34.60 15.37L34.60 15.37L34.60 15.37Q34.30 15.06 34.30 14.59L34.30 14.59L34.30 9.74L32.12 9.74ZM50.08 6.66L50.08 6.66L50.08 6.66Q50.08 6.26 50.37 5.97L50.37 5.97L50.37 5.97Q50.65 5.68 51.06 5.68L51.06 5.68L51.06 5.68Q51.46 5.68 51.75 5.97L51.75 5.97L51.75 5.97Q52.04 6.26 52.04 6.66L52.04 6.66L52.04 6.66Q52.04 7.07 51.75 7.36L51.75 7.36L51.75 7.36Q51.46 7.64 51.06 7.64L51.06 7.64L51.06 7.64Q50.65 7.64 50.37 7.36L50.37 7.36L50.37 7.36Q50.08 7.07 50.08 6.66ZM48.09 15.68L48.09 14.67L50.53 14.67L50.53 9.74L48.34 9.74L48.34 8.74L51.62 8.74L51.62 14.67L53.89 14.67L53.89 15.68L48.09 15.68ZM64.58 12.07L64.58 15.68L63.49 15.68L63.49 8.74L64.58 8.74L64.58 9.91L64.75 9.91L64.75 9.91Q65.39 8.54 66.99 8.54L66.99 8.54L66.99 8.54Q68.19 8.54 68.91 9.29L68.91 9.29L68.91 9.29Q69.62 10.04 69.62 11.54L69.62 11.54L69.62 15.68L68.53 15.68L68.53 11.76L68.53 11.76Q68.53 10.67 68.04 10.12L68.04 10.12L68.04 10.12Q67.55 9.58 66.71 9.58L66.71 9.58L66.71 9.58Q65.72 9.58 65.15 10.25L65.15 10.25L65.15 10.25Q64.58 10.93 64.58 12.07L64.58 12.07ZM84.34 17.05L84.34 14.62L84.17 14.62L84.17 14.62Q83.83 15.25 83.25 15.56L83.25 15.56L83.25 15.56Q82.67 15.88 81.98 15.88L81.98 15.88L81.98 15.88Q81.28 15.88 80.67 15.64L80.67 15.64L80.67 15.64Q80.05 15.40 79.58 14.95L79.58 14.95L79.58 14.95Q79.11 14.50 78.84 13.84L78.84 13.84L78.84 13.84Q78.57 13.17 78.57 12.32L78.57 12.32L78.57 12.10L78.57 12.10Q78.57 11.26 78.85 10.59L78.85 10.59L78.85 10.59Q79.13 9.93 79.59 9.47L79.59 9.47L79.59 9.47Q80.05 9.02 80.67 8.78L80.67 8.78L80.67 8.78Q81.28 8.54 81.96 8.54L81.96 8.54L81.96 8.54Q82.71 8.54 83.28 8.87L83.28 8.87L83.28 8.87Q83.85 9.20 84.17 9.83L84.17 9.83L84.34 9.83L84.34 8.74L85.43 8.74L85.43 17.39L85.43 17.39Q85.43 17.86 85.13 18.17L85.13 18.17L85.13 18.17Q84.83 18.48 84.35 18.48L84.35 18.48L79.83 18.48L79.83 17.47L83.96 17.47L83.96 17.47Q84.34 17.47 84.34 17.05L84.34 17.05ZM82.01 14.84L82.01 14.84L82.01 14.84Q82.50 14.84 82.92 14.66L82.92 14.66L82.92 14.66Q83.34 14.48 83.66 14.14L83.66 14.14L83.66 14.14Q83.97 13.80 84.15 13.33L84.15 13.33L84.15 13.33Q84.34 12.87 84.34 12.29L84.34 12.29L84.34 12.12L84.34 12.12Q84.34 11.56 84.15 11.09L84.15 11.09L84.15 11.09Q83.97 10.63 83.66 10.29L83.66 10.29L83.66 10.29Q83.34 9.95 82.92 9.77L82.92 9.77L82.92 9.77Q82.49 9.58 82.01 9.58L82.01 9.58L82.01 9.58Q81.52 9.58 81.09 9.76L81.09 9.76L81.09 9.76Q80.67 9.94 80.35 10.28L80.35 10.28L80.35 10.28Q80.04 10.61 79.86 11.07L79.86 11.07L79.86 11.07Q79.69 11.54 79.69 12.10L79.69 12.10L79.69 12.32L79.69 12.32Q79.69 12.91 79.86 13.37L79.86 13.37L79.86 13.37Q80.04 13.83 80.35 14.16L80.35 14.16L80.35 14.16Q80.67 14.49 81.09 14.66L81.09 14.66L81.09 14.66Q81.51 14.84 82.01 14.84ZM117.29 8.74L116.20 15.68L114.18 15.68L113.34 9.24L113.18 9.24L112.34 15.68L110.32 15.68L109.23 8.74L110.35 8.74L111.27 15.18L111.44 15.18L112.25 8.74L114.27 8.74L115.08 15.18L115.25 15.18L116.17 8.74L117.29 8.74ZM127.92 6.66L127.92 6.66L127.92 6.66Q127.92 6.26 128.20 5.97L128.20 5.97L128.20 5.97Q128.49 5.68 128.90 5.68L128.90 5.68L128.90 5.68Q129.30 5.68 129.59 5.97L129.59 5.97L129.59 5.97Q129.88 6.26 129.88 6.66L129.88 6.66L129.88 6.66Q129.88 7.07 129.59 7.36L129.59 7.36L129.59 7.36Q129.30 7.64 128.90 7.64L128.90 7.64L128.90 7.64Q128.49 7.64 128.20 7.36L128.20 7.36L128.20 7.36Q127.92 7.07 127.92 6.66ZM125.93 15.68L125.93 14.67L128.37 14.67L128.37 9.74L126.18 9.74L126.18 8.74L129.46 8.74L129.46 14.67L131.73 14.67L131.73 15.68L125.93 15.68ZM141.09 9.74L141.09 8.74L143.28 8.74L143.28 5.88L144.37 5.88L144.37 8.74L147.06 8.74L147.06 9.74L144.37 9.74L144.37 14.25L144.37 14.25Q144.37 14.67 144.75 14.67L144.75 14.67L146.72 14.67L146.72 15.68L144.35 15.68L144.35 15.68Q143.88 15.68 143.58 15.37L143.58 15.37L143.58 15.37Q143.28 15.06 143.28 14.59L143.28 14.59L143.28 9.74L141.09 9.74ZM157.99 12.07L157.99 15.68L156.90 15.68L156.90 5.88L157.99 5.88L157.99 10.00L158.16 10.00L158.16 10.00Q158.48 9.32 159.06 8.93L159.06 8.93L159.06 8.93Q159.64 8.54 160.48 8.54L160.48 8.54L160.48 8.54Q161.62 8.54 162.32 9.29L162.32 9.29L162.32 9.29Q163.03 10.04 163.03 11.54L163.03 11.54L163.03 15.68L161.94 15.68L161.94 11.76L161.94 11.76Q161.94 10.67 161.45 10.12L161.45 10.12L161.45 10.12Q160.96 9.58 160.12 9.58L160.12 9.58L160.12 9.58Q159.12 9.58 158.56 10.25L158.56 10.25L158.56 10.25Q157.99 10.93 157.99 12.07L157.99 12.07ZM193.91 15.68L193.20 13.24L189.00 13.24L188.29 15.68L187.03 15.68L189.99 5.88L192.21 5.88L195.17 15.68L193.91 15.68ZM191.18 6.38L191.02 6.38L189.32 12.15L192.88 12.15L191.18 6.38ZM203.21 9.74L203.21 8.74L205.73 8.74L205.73 9.66L205.90 9.66L205.90 9.66Q206.16 9.09 206.65 8.81L206.65 8.81L206.65 8.81Q207.14 8.54 207.77 8.54L207.77 8.54L207.77 8.54Q208.82 8.54 209.47 9.23L209.47 9.23L209.47 9.23Q210.11 9.91 210.15 11.23L210.15 11.23L209.01 11.40L209.01 11.40Q209.01 10.43 208.54 10.00L208.54 10.00L208.54 10.00Q208.08 9.58 207.41 9.58L207.41 9.58L207.41 9.58Q206.98 9.58 206.66 9.74L206.66 9.74L206.66 9.74Q206.35 9.91 206.14 10.21L206.14 10.21L206.14 10.21Q205.93 10.50 205.83 10.89L205.83 10.89L205.83 10.89Q205.73 11.28 205.73 11.73L205.73 11.73L205.73 14.67L207.49 14.67L207.49 15.68L203.04 15.68L203.04 14.67L204.64 14.67L204.64 9.74L203.21 9.74ZM218.93 9.74L218.93 8.74L221.12 8.74L221.12 5.88L222.21 5.88L222.21 8.74L224.90 8.74L224.90 9.74L222.21 9.74L222.21 14.25L222.21 14.25Q222.21 14.67 222.59 14.67L222.59 14.67L224.56 14.67L224.56 15.68L222.19 15.68L222.19 15.68Q221.72 15.68 221.42 15.37L221.42 15.37L221.42 15.37Q221.12 15.06 221.12 14.59L221.12 14.59L221.12 9.74L218.93 9.74Z"></path></g></svg>